<svg width="30" height="23" viewBox="0 0 30 23" fill="none" xmlns="http://www.w3.org/2000/svg">
<path d="M29.8494 4.332L29.8104 4.36323L29.8494 4.332C29.6757 4.11488 29.4127 3.98851 29.1346 3.98851H6.14243L5.50731 1.23644L5.50731 1.23644C5.41143 0.821121 5.0416 0.526904 4.61537 0.526904H0.865371C0.359864 0.526904 -0.05 0.936773 -0.05 1.44233C-0.05 1.9479 0.359868 2.35771 0.865371 2.35771H3.88718L8.25003 21.2635C8.34585 21.6789 8.71574 21.9731 9.14197 21.9731H26.4807C26.9863 21.9731 27.3961 21.5632 27.3961 21.0577C27.3961 20.5521 26.9862 20.1423 26.4807 20.1423H9.87022L9.22767 17.3577H26.5385C26.9667 17.3577 27.3376 17.061 27.4316 16.6433L30.0277 5.10481C30.0887 4.83347 30.0232 4.54917 29.8494 4.332ZM27.9904 5.81925L25.8062 15.5269H8.80517L6.56494 5.81925H27.9904Z" fill="#383838" stroke="#383838" stroke-width="0.1"/>
</svg>
