<svg width="14" height="9" viewBox="0 0 14 9" fill="none" xmlns="http://www.w3.org/2000/svg">
<path d="M7.53226 8.7825L13.6005 2.71414C13.741 2.57379 13.8184 2.38643 13.8184 2.18665C13.8184 1.98688 13.741 1.79952 13.6005 1.65916L13.1537 1.21227C12.8626 0.921475 12.3894 0.921475 12.0988 1.21227L7.003 6.30802L1.9016 1.20662C1.76114 1.06626 1.57389 0.988769 1.37422 0.988769C1.17434 0.988769 0.987088 1.06626 0.846513 1.20662L0.399842 1.65351C0.259377 1.79397 0.181995 1.98122 0.181995 2.181C0.181995 2.38078 0.259377 2.56814 0.399841 2.70849L6.47362 8.7825C6.61453 8.92319 6.80267 9.00046 7.00267 9.00001C7.20344 9.00046 7.39147 8.92319 7.53226 8.7825Z" fill="#383838"/>
</svg>
