<svg width="115" height="19" viewBox="0 0 115 19" fill="none" xmlns="http://www.w3.org/2000/svg">
<path d="M12.3074 18.8L8.19643 12.86C7.73395 12.9128 7.25433 12.9392 6.75759 12.9392H1.9272V18.8H0.0258789V0.320021H6.75759C9.05288 0.320021 10.8514 0.883221 12.1532 2.00962C13.455 3.13602 14.1059 4.68482 14.1059 6.65602C14.1059 8.09922 13.7462 9.32242 13.0268 10.3256C12.3245 11.3112 11.3139 12.024 9.99498 12.464L14.3886 18.8H12.3074ZM6.7062 11.276C8.48762 11.276 9.84938 10.8712 10.7915 10.0616C11.7336 9.25202 12.2046 8.11682 12.2046 6.65602C12.2046 5.16002 11.7336 4.01602 10.7915 3.22402C9.84938 2.41442 8.48762 2.00962 6.7062 2.00962H1.9272V11.276H6.7062ZM18.5935 0.320021H20.4948V18.8H18.5935V0.320021ZM34.1576 18.9584C32.3762 18.9584 30.7661 18.5536 29.3272 17.744C27.9055 16.9344 26.7836 15.8168 25.9614 14.3912C25.1563 12.948 24.7538 11.3376 24.7538 9.56002C24.7538 7.78242 25.1563 6.18082 25.9614 4.75522C26.7836 3.31202 27.9141 2.18562 29.3529 1.37602C30.7918 0.566421 32.4019 0.161621 34.1833 0.161621C35.5194 0.161621 36.7527 0.390422 37.8832 0.848022C39.0137 1.30562 39.9729 1.97442 40.7609 2.85442L39.5533 4.09522C38.1487 2.63442 36.3758 1.90402 34.2347 1.90402C32.813 1.90402 31.5197 2.23842 30.355 2.90722C29.1902 3.57602 28.2738 4.49122 27.6058 5.65282C26.9549 6.81442 26.6294 8.11682 26.6294 9.56002C26.6294 11.0032 26.9549 12.3056 27.6058 13.4672C28.2738 14.6288 29.1902 15.544 30.355 16.2128C31.5197 16.8816 32.813 17.216 34.2347 17.216C36.393 17.216 38.1658 16.4768 39.5533 14.9984L40.7609 16.2392C39.9729 17.1192 39.0051 17.7968 37.8575 18.272C36.727 18.7296 35.4937 18.9584 34.1576 18.9584ZM59.8447 0.320021V18.8H57.9691V10.2728H46.7153V18.8H44.814V0.320021H46.7153V8.55682H57.9691V0.320021H59.8447ZM77.0459 9.26962C78.2278 9.53362 79.1356 10.0616 79.7694 10.8536C80.4203 11.628 80.7457 12.6312 80.7457 13.8632C80.7457 15.4472 80.1719 16.6704 79.0243 17.5328C77.8937 18.3776 76.2151 18.8 73.9883 18.8H65.715V0.320021H73.4745C75.4786 0.320021 77.0287 0.733622 78.125 1.56082C79.2384 2.38802 79.7951 3.55842 79.7951 5.07202C79.7951 6.09282 79.5467 6.96402 79.0499 7.68562C78.5703 8.38962 77.9023 8.91762 77.0459 9.26962ZM67.6163 1.93042V8.63602H73.346C74.802 8.63602 75.9239 8.35442 76.7118 7.79122C77.4998 7.21042 77.8937 6.37442 77.8937 5.28322C77.8937 4.19202 77.4998 3.36482 76.7118 2.80162C75.9239 2.22082 74.802 1.93042 73.346 1.93042H67.6163ZM73.9626 17.1896C75.5728 17.1896 76.7889 16.908 77.6111 16.3448C78.4333 15.7816 78.8444 14.9016 78.8444 13.7048C78.8444 11.3992 77.2172 10.2464 73.9626 10.2464H67.6163V17.1896H73.9626ZM97.8041 17.1104V18.8H85.0858V0.320021H97.4187V2.00962H86.9871V8.58322H96.2882V10.2464H86.9871V17.1104H97.8041ZM114.992 17.1104V18.8H102.273V0.320021H114.606V2.00962H104.175V8.58322H113.476V10.2464H104.175V17.1104H114.992Z" fill="#383838"/>
</svg>
